<svg id="svg" version="1.1" xmlns="http://www.w3.org/2000/svg" xmlns:xlink="http://www.w3.org/1999/xlink" width="400" height="400.30075187969925" viewBox="0, 0, 400,400.30075187969925"><g id="svgg"><path id="path0" d="M190.612 0.348 C 190.069 0.457,188.135 0.626,186.316 0.724 C 184.496 0.822,182.466 0.966,181.805 1.045 C 181.143 1.124,179.789 1.258,178.797 1.343 C 177.805 1.428,176.519 1.563,175.940 1.643 C 175.361 1.723,174.278 1.851,173.534 1.928 C 172.789 2.004,171.707 2.154,171.128 2.259 C 170.549 2.365,168.451 2.714,166.466 3.035 C 164.481 3.355,162.586 3.673,162.256 3.741 C 156.100 5.012,152.517 5.831,149.774 6.597 C 148.534 6.943,147.113 7.306,146.617 7.403 C 146.120 7.501,144.970 7.825,144.060 8.123 C 143.150 8.422,141.391 8.959,140.150 9.317 C 138.910 9.674,137.624 10.083,137.293 10.225 C 136.962 10.367,135.947 10.705,135.038 10.976 C 133.280 11.499,131.774 12.063,129.703 12.974 C 129.001 13.282,128.316 13.534,128.180 13.534 C 128.044 13.534,127.372 13.805,126.688 14.135 C 126.003 14.466,125.318 14.737,125.166 14.737 C 125.014 14.737,123.485 15.355,121.768 16.110 C 113.690 19.665,105.375 23.818,100.973 26.497 C 100.185 26.976,99.488 27.368,99.424 27.368 C 99.361 27.368,98.449 27.911,97.399 28.574 C 96.348 29.236,95.150 29.941,94.737 30.139 C 94.323 30.338,93.511 30.857,92.932 31.294 C 92.353 31.730,91.203 32.477,90.376 32.952 C 89.549 33.428,88.737 33.932,88.571 34.072 C 88.406 34.212,86.983 35.231,85.410 36.336 C 68.509 48.206,54.272 61.879,40.882 79.098 C 39.535 80.829,37.907 83.113,34.983 87.368 C 33.278 89.850,31.781 92.019,31.656 92.189 C 31.531 92.360,31.165 92.969,30.842 93.543 C 30.520 94.117,30.141 94.722,30.002 94.887 C 29.729 95.211,26.851 100.074,25.853 101.897 C 23.820 105.613,22.921 107.313,21.210 110.677 C 20.158 112.744,18.935 115.248,18.492 116.241 C 18.050 117.233,17.362 118.735,16.964 119.578 C 16.566 120.421,16.241 121.195,16.241 121.298 C 16.241 121.401,15.911 122.207,15.508 123.088 C 15.105 123.969,14.347 125.834,13.823 127.232 C 13.300 128.630,12.538 130.654,12.131 131.729 C 10.807 135.221,10.504 136.069,10.090 137.444 C 9.865 138.188,9.253 140.150,8.730 141.805 C 8.207 143.459,7.729 145.015,7.668 145.263 C 7.606 145.511,7.090 147.541,6.520 149.774 C 4.751 156.709,2.722 166.468,2.236 170.376 C 2.174 170.872,2.055 171.752,1.970 172.331 C 1.590 174.937,0.871 181.904,0.388 187.669 C 0.270 189.075,0.171 194.692,0.168 200.150 C 0.163 208.706,0.290 212.279,0.755 216.692 C 0.807 217.188,0.922 218.474,1.011 219.549 C 1.245 222.393,1.791 226.951,2.140 228.975 C 2.306 229.942,2.494 231.160,2.557 231.682 C 2.889 234.451,4.176 241.073,5.160 245.080 C 5.501 246.468,5.811 247.753,5.849 247.937 C 5.985 248.590,6.440 250.679,6.479 250.827 C 6.500 250.910,6.600 251.180,6.700 251.429 C 6.844 251.786,8.279 256.977,8.861 259.248 C 8.924 259.496,9.004 259.733,9.037 259.774 C 9.070 259.816,9.126 259.951,9.161 260.075 C 9.196 260.199,9.305 260.504,9.403 260.752 C 9.501 261.000,10.217 263.098,10.993 265.414 C 14.196 274.964,20.940 290.168,24.773 296.477 C 25.373 297.465,25.865 298.350,25.865 298.443 C 25.865 298.683,30.284 306.052,31.398 307.669 C 32.500 309.268,32.956 310.010,33.339 310.827 C 33.494 311.158,33.872 311.730,34.179 312.098 C 34.486 312.467,35.414 313.725,36.241 314.895 C 38.145 317.588,43.446 324.666,44.479 325.895 C 44.910 326.408,45.690 327.355,46.211 328.000 C 47.551 329.658,47.983 330.150,52.133 334.737 C 56.788 339.882,63.951 346.847,69.624 351.744 C 71.113 353.028,72.398 354.169,72.481 354.278 C 72.564 354.388,73.579 355.196,74.737 356.075 C 75.895 356.954,76.910 357.761,76.992 357.870 C 77.075 357.979,78.496 359.048,80.150 360.246 C 81.805 361.445,83.632 362.793,84.211 363.242 C 85.338 364.118,90.639 367.636,92.256 368.581 C 92.793 368.895,93.233 369.258,93.233 369.388 C 93.233 369.518,93.375 369.624,93.548 369.624 C 93.722 369.624,94.635 370.125,95.578 370.737 C 97.798 372.178,98.904 372.817,99.925 373.245 C 100.380 373.436,100.752 373.737,100.752 373.914 C 100.752 374.091,100.833 374.155,100.931 374.056 C 101.030 373.957,101.946 374.375,102.966 374.983 C 103.987 375.592,105.361 376.361,106.020 376.691 C 106.679 377.021,107.397 377.461,107.615 377.668 C 107.834 377.876,108.123 378.045,108.258 378.045 C 108.394 378.045,110.583 379.043,113.124 380.262 C 117.233 382.234,119.129 383.113,122.256 384.499 C 123.928 385.240,127.656 386.713,129.474 387.351 C 130.466 387.700,131.549 388.108,131.880 388.257 C 133.942 389.188,148.214 393.556,151.128 394.148 C 151.459 394.216,152.820 394.537,154.154 394.864 C 157.091 395.582,157.921 395.764,159.788 396.100 C 160.581 396.242,161.461 396.431,161.743 396.518 C 162.025 396.606,162.797 396.757,163.459 396.854 C 164.739 397.042,165.410 397.164,166.617 397.426 C 167.030 397.516,167.977 397.668,168.722 397.764 C 169.466 397.861,170.414 397.994,170.827 398.061 C 171.241 398.128,172.188 398.254,172.932 398.340 C 173.677 398.426,175.233 398.626,176.391 398.783 C 179.897 399.260,181.607 399.405,189.323 399.878 C 197.629 400.387,211.439 400.049,220.902 399.105 C 222.722 398.923,224.414 398.722,224.662 398.657 C 224.910 398.591,225.925 398.454,226.917 398.351 C 227.910 398.247,229.128 398.089,229.624 397.998 C 230.120 397.908,230.865 397.793,231.278 397.744 C 233.759 397.449,242.750 395.598,248.120 394.278 C 249.526 393.932,250.947 393.601,251.278 393.543 C 252.273 393.368,263.732 389.829,266.316 388.900 C 267.639 388.423,269.737 387.669,270.977 387.222 C 272.218 386.776,273.774 386.167,274.436 385.870 C 275.098 385.572,276.789 384.849,278.195 384.263 C 281.664 382.818,290.941 378.438,292.782 377.376 C 293.113 377.186,294.534 376.426,295.940 375.688 C 297.346 374.950,299.078 373.960,299.790 373.489 C 300.501 373.017,301.133 372.632,301.195 372.632 C 301.358 372.632,307.609 368.792,309.023 367.823 C 309.684 367.370,311.308 366.280,312.632 365.401 C 315.627 363.411,323.940 357.260,325.588 355.814 C 326.264 355.221,327.076 354.532,327.393 354.281 C 328.602 353.325,331.886 350.583,332.030 350.408 C 332.113 350.308,333.790 348.739,335.757 346.922 C 339.423 343.536,345.266 337.666,347.865 334.759 C 348.667 333.862,349.595 332.847,349.928 332.504 C 350.388 332.029,356.123 325.108,357.673 323.158 C 360.692 319.357,365.228 312.920,368.161 308.271 C 369.362 306.368,370.453 304.767,370.585 304.712 C 370.718 304.657,370.827 304.489,370.827 304.340 C 370.827 304.190,371.734 302.543,372.844 300.680 C 376.092 295.224,380.059 287.441,383.232 280.301 C 384.407 277.656,387.353 270.420,387.518 269.774 C 387.581 269.526,388.370 267.158,389.271 264.511 C 392.074 256.280,393.239 252.182,395.042 244.211 C 395.435 242.474,395.888 240.511,396.047 239.850 C 396.207 239.188,396.409 238.105,396.496 237.444 C 396.673 236.102,397.266 232.413,397.777 229.474 C 398.048 227.917,398.139 227.220,398.502 223.910 C 398.684 222.256,398.891 220.393,398.963 219.770 C 399.034 219.148,399.164 217.727,399.250 216.613 C 399.336 215.498,399.495 213.436,399.603 212.030 C 399.879 208.452,399.872 191.447,399.594 187.820 C 399.339 184.501,399.272 183.753,398.939 180.451 C 398.813 179.211,398.685 177.925,398.653 177.594 C 398.471 175.696,398.070 172.850,397.404 168.722 C 396.991 166.158,396.591 163.586,396.516 163.008 C 396.441 162.429,396.306 161.719,396.215 161.431 C 396.125 161.143,395.985 160.534,395.904 160.078 C 395.518 157.895,394.083 151.997,392.904 147.744 C 392.640 146.793,392.304 145.431,392.157 144.717 C 392.011 144.003,391.813 143.293,391.718 143.139 C 391.623 142.985,391.495 142.602,391.435 142.287 C 391.112 140.611,386.503 127.605,385.295 124.962 C 384.993 124.301,384.364 122.812,383.898 121.654 C 383.431 120.496,382.939 119.420,382.803 119.263 C 382.667 119.106,382.556 118.734,382.556 118.436 C 382.556 118.138,382.421 117.895,382.256 117.895 C 382.090 117.895,381.955 117.735,381.955 117.539 C 381.955 116.819,374.937 103.032,373.145 100.232 C 372.697 99.532,372.331 98.909,372.331 98.848 C 372.331 98.786,371.585 97.532,370.674 96.060 C 369.763 94.588,368.790 92.944,368.513 92.406 C 368.236 91.868,367.899 91.429,367.764 91.429 C 367.629 91.429,367.519 91.237,367.519 91.003 C 367.519 90.768,367.409 90.531,367.276 90.476 C 367.142 90.421,366.504 89.564,365.858 88.571 C 365.211 87.579,364.603 86.699,364.506 86.617 C 364.409 86.534,363.872 85.789,363.312 84.962 C 360.828 81.291,360.217 80.431,359.373 79.421 C 358.879 78.830,358.377 78.211,358.258 78.045 C 357.489 76.984,355.703 74.738,354.191 72.932 C 353.221 71.774,351.932 70.232,351.327 69.505 C 347.173 64.517,336.007 53.348,330.959 49.132 C 330.194 48.493,329.208 47.629,328.769 47.211 C 327.597 46.099,318.539 39.031,316.251 37.444 C 313.909 35.820,308.265 32.101,304.962 30.007 C 301.567 27.853,300.560 27.243,298.947 26.362 C 298.038 25.865,296.887 25.224,296.391 24.936 C 294.574 23.885,282.198 17.785,280.301 17.006 C 279.226 16.564,277.928 16.013,277.417 15.780 C 276.907 15.547,274.877 14.739,272.906 13.985 C 270.936 13.230,269.088 12.482,268.801 12.321 C 268.514 12.161,268.040 12.025,267.748 12.020 C 267.457 12.014,266.677 11.748,266.015 11.429 C 265.353 11.109,264.629 10.843,264.406 10.837 C 264.183 10.832,263.574 10.638,263.053 10.406 C 262.532 10.174,261.835 9.917,261.504 9.834 C 261.173 9.751,258.737 9.046,256.090 8.268 C 250.673 6.674,249.435 6.328,248.571 6.168 C 248.241 6.107,247.090 5.848,246.015 5.593 C 240.457 4.274,238.711 3.892,236.957 3.614 C 235.901 3.446,234.361 3.184,233.534 3.032 C 229.957 2.372,230.585 2.461,225.714 1.933 C 224.887 1.843,224.008 1.714,223.759 1.645 C 223.036 1.445,216.252 0.852,209.474 0.395 C 205.711 0.142,191.814 0.108,190.612 0.348 M192.481 106.568 C 193.391 106.644,195.827 106.801,197.895 106.916 C 199.962 107.032,202.060 107.181,202.556 107.248 C 203.053 107.315,204.474 107.435,205.714 107.514 C 207.873 107.653,209.783 107.825,212.556 108.130 C 213.259 108.207,214.410 108.331,215.113 108.404 C 218.036 108.709,220.611 108.993,220.752 109.025 C 220.835 109.044,221.782 109.163,222.857 109.290 C 223.932 109.417,225.150 109.570,225.564 109.630 C 225.977 109.691,226.863 109.817,227.531 109.913 C 228.199 110.008,229.079 110.151,229.486 110.230 C 229.893 110.310,230.835 110.451,231.579 110.544 C 232.323 110.636,233.677 110.837,234.586 110.990 C 235.496 111.143,236.782 111.340,237.444 111.429 C 238.492 111.570,239.332 111.711,241.203 112.061 C 241.451 112.107,242.466 112.288,243.459 112.464 C 244.451 112.639,245.602 112.842,246.015 112.916 C 246.820 113.059,250.787 113.861,252.030 114.132 C 252.444 114.223,253.256 114.365,253.835 114.448 C 255.005 114.617,256.692 114.996,259.398 115.697 C 260.391 115.955,261.609 116.229,262.104 116.308 C 262.600 116.386,265.036 116.987,267.518 117.643 C 272.631 118.994,274.240 119.412,274.887 119.554 C 275.135 119.609,275.372 119.664,275.414 119.676 C 275.455 119.689,275.556 119.700,275.638 119.701 C 275.721 119.703,276.296 119.892,276.916 120.123 C 277.537 120.353,278.722 120.706,279.549 120.907 C 280.376 121.107,281.797 121.508,282.707 121.798 C 287.384 123.285,290.438 124.291,290.977 124.520 C 291.308 124.661,292.594 125.116,293.835 125.531 C 296.490 126.420,301.422 128.203,302.707 128.739 C 303.203 128.946,303.744 129.149,303.910 129.192 C 304.703 129.393,311.174 132.124,311.504 132.395 C 311.711 132.566,311.880 132.618,311.880 132.512 C 311.880 132.406,312.455 132.620,313.158 132.988 C 313.861 133.356,314.504 133.666,314.586 133.676 C 315.085 133.739,328.061 140.143,330.677 141.617 C 331.835 142.270,333.459 143.170,334.286 143.617 C 343.463 148.580,348.353 157.465,346.057 165.004 C 345.963 165.312,345.813 165.994,345.724 166.520 C 345.239 169.388,339.796 176.842,338.187 176.842 C 337.971 176.842,337.749 176.979,337.693 177.145 C 337.534 177.622,333.286 179.289,331.128 179.722 C 328.259 180.297,325.052 180.072,322.231 179.100 C 320.041 178.344,319.007 177.845,315.188 175.697 C 310.890 173.279,302.434 168.968,302.177 169.063 C 302.138 169.078,301.276 168.669,300.264 168.154 C 299.251 167.639,298.320 167.218,298.195 167.218 C 298.071 167.218,297.173 166.814,296.201 166.319 C 295.228 165.825,294.332 165.407,294.209 165.390 C 294.086 165.373,293.529 165.168,292.971 164.935 C 292.413 164.702,291.892 164.511,291.813 164.511 C 291.734 164.511,291.243 164.327,290.722 164.102 C 290.201 163.878,289.368 163.523,288.872 163.315 C 287.511 162.745,277.998 159.413,275.940 158.786 C 274.947 158.484,272.579 157.743,270.677 157.141 C 268.774 156.538,266.893 155.981,266.495 155.903 C 266.097 155.825,265.522 155.627,265.217 155.464 C 264.911 155.300,264.662 155.236,264.662 155.320 C 264.662 155.405,264.316 155.343,263.894 155.182 C 263.472 155.022,262.762 154.822,262.315 154.739 C 261.869 154.656,260.759 154.375,259.850 154.115 C 258.940 153.855,257.818 153.586,257.357 153.517 C 256.896 153.449,256.253 153.250,255.929 153.077 C 255.604 152.903,255.338 152.822,255.338 152.898 C 255.338 152.973,254.848 152.899,254.248 152.733 C 253.649 152.568,252.938 152.387,252.669 152.333 C 251.663 152.128,247.601 151.253,245.714 150.835 C 241.119 149.817,230.400 147.928,225.113 147.205 C 224.617 147.137,223.263 146.950,222.105 146.790 C 220.947 146.629,219.391 146.429,218.647 146.345 C 217.902 146.261,216.143 146.045,214.737 145.865 C 211.035 145.393,210.324 145.316,207.820 145.115 C 206.579 145.015,204.887 144.876,204.060 144.804 C 198.892 144.359,191.469 143.862,186.165 143.608 C 182.896 143.451,159.762 143.451,156.393 143.608 C 154.988 143.674,151.943 143.810,149.626 143.912 C 147.309 144.014,144.872 144.161,144.211 144.238 C 143.549 144.316,142.263 144.440,141.353 144.514 C 136.837 144.881,133.279 145.212,131.880 145.396 C 131.383 145.462,130.098 145.602,129.023 145.708 C 127.947 145.815,126.594 145.978,126.015 146.072 C 125.436 146.166,124.556 146.282,124.060 146.329 C 123.564 146.376,122.887 146.478,122.556 146.557 C 122.226 146.635,120.968 146.788,119.763 146.895 C 118.557 147.003,117.271 147.203,116.906 147.340 C 116.540 147.477,115.429 147.683,114.436 147.799 C 113.444 147.915,112.158 148.126,111.579 148.268 C 111.000 148.409,109.985 148.599,109.323 148.690 C 108.662 148.781,107.782 148.931,107.368 149.024 C 105.821 149.370,103.594 149.840,103.158 149.912 C 102.782 149.973,100.900 150.363,100.075 150.550 C 99.951 150.578,99.816 150.636,99.774 150.677 C 99.733 150.719,99.429 150.787,99.098 150.828 C 98.767 150.869,97.752 151.118,96.842 151.382 C 95.932 151.645,94.782 151.932,94.286 152.018 C 93.789 152.104,91.759 152.659,89.774 153.250 C 87.789 153.842,85.783 154.383,85.315 154.453 C 84.847 154.523,84.335 154.660,84.178 154.757 C 84.021 154.854,82.915 154.992,81.720 155.064 C 74.229 155.514,67.105 151.258,63.507 144.181 C 61.927 141.075,61.587 134.258,62.830 130.610 C 65.647 122.340,71.529 118.789,88.872 114.889 C 91.148 114.377,97.620 112.989,99.248 112.663 C 99.662 112.580,100.338 112.438,100.752 112.348 C 102.423 111.982,111.839 110.402,113.383 110.227 C 114.293 110.125,115.241 109.984,115.489 109.915 C 116.028 109.764,121.580 108.986,123.910 108.735 C 131.575 107.910,131.298 107.937,139.398 107.228 C 141.996 107.000,144.698 106.845,150.526 106.588 C 153.008 106.479,155.099 106.334,155.174 106.267 C 155.352 106.106,190.326 106.389,192.481 106.568 M178.947 175.151 C 188.369 175.613,189.688 175.686,190.677 175.805 C 191.256 175.874,192.744 176.007,193.985 176.100 C 195.226 176.193,196.511 176.323,196.842 176.390 C 197.173 176.457,198.323 176.595,199.398 176.696 C 200.474 176.798,201.895 176.943,202.556 177.018 C 203.218 177.093,204.436 177.226,205.263 177.314 C 206.090 177.403,207.511 177.599,208.421 177.750 C 209.331 177.902,210.752 178.108,211.579 178.207 C 213.030 178.382,213.547 178.462,215.489 178.812 C 215.985 178.901,217.947 179.244,219.850 179.573 C 227.798 180.950,228.428 181.079,236.090 182.894 C 236.835 183.071,237.782 183.274,238.195 183.347 C 238.609 183.420,239.624 183.670,240.451 183.903 C 241.278 184.137,242.293 184.397,242.707 184.481 C 243.120 184.566,244.203 184.855,245.113 185.123 C 246.023 185.392,247.241 185.727,247.820 185.869 C 248.398 186.010,249.414 186.275,250.075 186.458 C 250.737 186.641,251.443 186.826,251.645 186.870 C 251.847 186.914,252.107 187.044,252.222 187.159 C 252.337 187.274,252.659 187.368,252.937 187.368 C 253.215 187.368,255.121 187.923,257.172 188.601 C 259.224 189.280,261.038 189.859,261.203 189.888 C 261.368 189.918,261.639 190.026,261.805 190.128 C 261.970 190.231,262.714 190.476,263.459 190.673 C 264.203 190.870,265.218 191.210,265.714 191.429 C 266.211 191.648,267.496 192.120,268.571 192.478 C 269.647 192.837,270.932 193.307,271.429 193.522 C 271.925 193.738,272.805 194.079,273.383 194.281 C 274.582 194.698,274.964 194.855,277.377 195.923 C 278.333 196.346,279.281 196.692,279.483 196.693 C 279.684 196.693,280.289 196.962,280.827 197.290 C 281.365 197.618,281.805 197.817,281.805 197.732 C 281.805 197.648,282.244 197.813,282.782 198.100 C 283.320 198.387,283.827 198.634,283.910 198.649 C 283.992 198.664,284.737 199.002,285.564 199.398 C 286.391 199.795,287.135 200.134,287.218 200.151 C 287.728 200.254,297.157 204.928,299.248 206.113 C 299.992 206.535,301.278 207.219,302.105 207.632 C 303.743 208.450,305.926 209.684,306.165 209.927 C 306.248 210.011,307.060 210.472,307.970 210.952 C 309.450 211.732,310.586 212.442,311.846 213.375 C 327.885 225.249,311.701 249.179,294.465 239.074 C 293.043 238.241,291.677 237.440,291.429 237.296 C 284.526 233.274,275.428 228.764,268.722 226.041 C 267.233 225.436,265.744 224.818,265.414 224.667 C 263.101 223.613,251.128 219.256,248.872 218.647 C 248.376 218.513,247.293 218.180,246.466 217.907 C 245.639 217.634,244.556 217.337,244.060 217.247 C 243.564 217.157,242.947 216.970,242.689 216.833 C 242.213 216.578,238.657 215.613,233.233 214.266 C 231.579 213.855,229.887 213.435,229.474 213.333 C 229.060 213.230,228.519 213.115,228.271 213.077 C 227.888 213.018,226.754 212.764,221.504 211.556 C 221.173 211.480,220.429 211.347,219.850 211.261 C 219.271 211.175,218.459 211.040,218.045 210.961 C 217.632 210.882,216.955 210.752,216.541 210.673 C 214.167 210.218,212.069 209.845,211.278 209.737 C 210.782 209.669,209.564 209.482,208.571 209.322 C 207.579 209.161,205.752 208.894,204.511 208.729 C 203.271 208.564,201.917 208.371,201.504 208.300 C 200.867 208.191,199.530 208.040,195.940 207.670 C 195.609 207.636,194.323 207.517,193.083 207.406 C 191.842 207.295,190.218 207.141,189.474 207.064 C 188.729 206.987,186.902 206.846,185.414 206.751 C 183.925 206.655,181.150 206.474,179.248 206.348 C 175.501 206.099,154.277 206.155,151.579 206.421 C 150.669 206.511,148.571 206.672,146.917 206.780 C 142.920 207.041,142.057 207.113,138.346 207.497 C 136.609 207.677,134.444 207.899,133.534 207.990 C 132.624 208.082,131.609 208.212,131.278 208.278 C 130.947 208.344,130.000 208.479,129.173 208.577 C 128.346 208.676,127.085 208.886,126.370 209.046 C 125.656 209.205,124.032 209.478,122.761 209.652 C 118.929 210.178,108.596 212.292,105.865 213.108 C 104.955 213.380,103.940 213.645,103.609 213.697 C 103.278 213.749,101.789 214.149,100.301 214.587 C 91.453 217.189,88.848 217.228,83.937 214.828 C 74.718 210.322,72.637 197.765,79.872 190.296 C 80.776 189.362,81.885 188.394,82.337 188.145 C 83.437 187.536,85.209 186.666,85.489 186.597 C 85.613 186.566,85.782 186.508,85.865 186.466 C 85.947 186.425,86.117 186.368,86.241 186.341 C 86.365 186.313,87.008 186.121,87.669 185.915 C 88.331 185.708,89.414 185.394,90.075 185.216 C 90.737 185.039,91.549 184.781,91.880 184.644 C 92.594 184.347,106.675 180.955,108.571 180.623 C 108.985 180.550,110.068 180.338,110.977 180.150 C 111.887 179.963,113.376 179.689,114.286 179.541 C 115.195 179.393,117.396 179.000,119.175 178.668 C 121.987 178.142,124.025 177.861,131.549 176.966 C 132.360 176.869,133.254 176.746,133.536 176.691 C 133.818 176.637,135.117 176.503,136.423 176.393 C 137.729 176.283,139.135 176.141,139.549 176.079 C 139.962 176.016,141.519 175.886,143.008 175.790 C 144.496 175.695,146.459 175.558,147.368 175.487 C 148.278 175.416,151.188 175.270,153.835 175.163 C 156.481 175.056,158.669 174.950,158.697 174.928 C 158.845 174.808,175.750 174.994,178.947 175.151 M182.857 240.413 C 184.098 240.491,186.466 240.638,188.120 240.739 C 189.774 240.841,191.805 240.998,192.632 241.089 C 193.459 241.181,194.677 241.298,195.338 241.351 C 198.669 241.615,201.056 241.864,201.216 241.963 C 201.315 242.024,202.062 242.151,202.878 242.246 C 203.694 242.341,204.970 242.501,205.714 242.602 C 206.459 242.703,207.372 242.824,207.744 242.870 C 208.457 242.959,210.566 243.301,211.579 243.493 C 211.910 243.555,212.992 243.750,213.985 243.925 C 218.035 244.638,226.176 246.416,229.884 247.397 C 232.057 247.971,234.173 248.494,234.587 248.558 C 235.001 248.622,236.083 248.938,236.993 249.259 C 237.902 249.581,239.256 250.015,240.000 250.223 C 240.744 250.432,242.707 251.066,244.361 251.633 C 246.015 252.199,247.504 252.703,247.669 252.752 C 247.835 252.801,248.173 252.919,248.421 253.014 C 248.669 253.109,249.617 253.416,250.526 253.697 C 252.192 254.211,252.552 254.354,255.723 255.767 C 256.679 256.193,257.606 256.541,257.783 256.541 C 257.960 256.541,258.565 256.744,259.127 256.992 C 259.690 257.241,260.658 257.662,261.278 257.928 C 265.176 259.602,275.810 264.780,278.195 266.165 C 281.268 267.949,282.466 268.625,283.759 269.305 C 288.290 271.683,290.318 273.415,291.909 276.266 C 295.268 282.281,292.881 289.812,286.541 293.203 C 285.590 293.712,284.812 294.065,284.812 293.989 C 284.812 293.912,284.447 293.988,284.002 294.157 C 280.916 295.331,277.357 294.422,271.579 290.985 C 266.176 287.772,257.180 283.102,255.338 282.556 C 254.925 282.433,254.451 282.230,254.286 282.105 C 253.923 281.832,247.533 279.176,243.008 277.418 C 241.623 276.880,234.864 274.569,234.286 274.436 C 234.038 274.378,231.876 273.766,229.483 273.074 C 227.090 272.382,224.799 271.756,224.392 271.682 C 223.984 271.608,223.538 271.478,223.400 271.392 C 223.261 271.307,222.778 271.171,222.326 271.090 C 221.874 271.010,220.827 270.764,220.000 270.543 C 218.546 270.156,216.148 269.635,214.286 269.303 C 213.789 269.214,212.301 268.937,210.977 268.687 C 209.654 268.437,208.233 268.178,207.820 268.112 C 207.406 268.046,206.729 267.919,206.316 267.830 C 205.902 267.741,204.820 267.593,203.910 267.501 C 203.000 267.409,202.053 267.279,201.805 267.212 C 201.409 267.105,197.659 266.608,195.038 266.316 C 194.004 266.200,191.181 265.948,188.120 265.697 C 186.962 265.602,185.406 265.470,184.662 265.403 C 181.582 265.128,160.137 265.039,156.241 265.285 C 153.925 265.431,150.803 265.614,149.303 265.692 C 146.598 265.832,144.119 266.037,141.805 266.312 C 141.143 266.391,139.789 266.530,138.797 266.621 C 137.805 266.712,136.654 266.844,136.241 266.915 C 135.827 266.985,134.609 267.129,133.534 267.236 C 132.459 267.343,131.511 267.470,131.429 267.520 C 131.346 267.570,130.534 267.698,129.624 267.805 C 128.196 267.972,125.490 268.378,121.504 269.021 C 120.925 269.114,119.977 269.259,119.398 269.342 C 118.820 269.426,118.008 269.562,117.594 269.645 C 117.180 269.729,116.098 269.926,115.188 270.083 C 114.278 270.240,111.301 270.836,108.571 271.407 C 105.842 271.978,103.271 272.509,102.857 272.588 C 102.444 272.666,101.496 272.885,100.752 273.074 C 94.345 274.705,88.829 272.823,85.694 267.939 C 81.678 261.680,84.282 253.061,91.108 250.027 C 92.731 249.305,93.096 249.203,95.338 248.845 C 95.917 248.753,96.594 248.601,96.842 248.507 C 97.090 248.414,97.496 248.305,97.744 248.266 C 97.992 248.227,99.481 247.913,101.053 247.569 C 102.624 247.226,104.789 246.789,105.865 246.600 C 106.940 246.410,108.158 246.196,108.571 246.123 C 108.985 246.051,109.526 245.931,109.774 245.857 C 110.386 245.675,118.623 244.269,120.256 244.069 C 120.976 243.980,121.653 243.853,121.761 243.786 C 121.941 243.675,128.440 242.819,131.278 242.533 C 131.940 242.466,132.893 242.348,133.397 242.270 C 137.194 241.683,148.383 240.773,155.940 240.436 C 158.256 240.333,160.183 240.216,160.224 240.176 C 160.349 240.052,180.470 240.263,182.857 240.413 " stroke="none" fill="#6414fc" fill-rule="evenodd"></path><path id="path1" d="M189.173 0.301 C 188.158 0.514,188.153 0.522,189.023 0.526 C 189.519 0.529,190.331 0.427,190.827 0.301 C 192.075 -0.017,190.682 -0.017,189.173 0.301 M192.406 0.212 C 192.778 0.284,193.387 0.284,193.759 0.212 C 194.132 0.141,193.827 0.082,193.083 0.082 C 192.338 0.082,192.034 0.141,192.406 0.212 M205.739 0.124 C 205.808 0.193,207.015 0.321,208.421 0.409 C 209.992 0.507,210.688 0.470,210.226 0.314 C 209.471 0.059,205.504 -0.109,205.739 0.124 M265.865 11.301 C 265.865 11.504,267.427 12.072,267.576 11.923 C 267.644 11.855,267.287 11.655,266.782 11.479 C 266.278 11.303,265.865 11.223,265.865 11.301 M286.917 19.998 C 286.917 20.202,289.360 21.417,289.496 21.281 C 289.559 21.218,289.005 20.872,288.264 20.512 C 287.523 20.152,286.917 19.921,286.917 19.998 M104.361 24.361 C 103.782 24.678,103.416 24.943,103.549 24.950 C 103.867 24.967,105.564 24.084,105.564 23.902 C 105.564 23.705,105.546 23.712,104.361 24.361 M335.188 52.932 C 335.834 53.594,336.430 54.135,336.513 54.135 C 336.596 54.135,336.135 53.594,335.489 52.932 C 334.843 52.271,334.246 51.729,334.164 51.729 C 334.081 51.729,334.542 52.271,335.188 52.932 M58.340 58.872 L 55.489 61.805 58.421 58.953 C 60.034 57.385,61.353 56.066,61.353 56.021 C 61.353 55.803,60.988 56.149,58.340 58.872 M341.353 58.797 C 342.252 59.707,343.055 60.451,343.137 60.451 C 343.220 60.451,342.553 59.707,341.654 58.797 C 340.756 57.887,339.953 57.143,339.870 57.143 C 339.787 57.143,340.455 57.887,341.353 58.797 M346.754 64.436 C 348.001 65.764,348.271 66.003,348.271 65.777 C 348.271 65.729,347.628 65.086,346.842 64.348 L 345.414 63.008 346.754 64.436 M157.222 106.378 C 157.596 106.450,158.137 106.447,158.425 106.372 C 158.712 106.297,158.406 106.238,157.744 106.241 C 157.083 106.245,156.847 106.306,157.222 106.378 M150.155 106.682 C 150.612 106.751,151.288 106.749,151.658 106.678 C 152.028 106.606,151.654 106.550,150.827 106.552 C 150.000 106.554,149.697 106.613,150.155 106.682 M189.703 106.679 C 190.077 106.751,190.618 106.748,190.906 106.673 C 191.193 106.598,190.887 106.539,190.226 106.542 C 189.564 106.545,189.329 106.607,189.703 106.679 M196.015 106.979 C 196.387 107.051,196.996 107.051,197.368 106.979 C 197.741 106.907,197.436 106.849,196.692 106.849 C 195.947 106.849,195.643 106.907,196.015 106.979 M140.075 107.280 C 140.447 107.352,141.056 107.352,141.429 107.280 C 141.801 107.208,141.496 107.150,140.752 107.150 C 140.008 107.150,139.703 107.208,140.075 107.280 M200.226 107.280 C 200.598 107.352,201.207 107.352,201.579 107.280 C 201.951 107.208,201.647 107.150,200.902 107.150 C 200.158 107.150,199.853 107.208,200.226 107.280 M132.556 107.881 C 132.929 107.953,133.538 107.953,133.910 107.881 C 134.282 107.810,133.977 107.751,133.233 107.751 C 132.489 107.751,132.184 107.810,132.556 107.881 M255.038 114.887 C 256.066 115.217,256.857 115.217,256.090 114.887 C 255.759 114.745,255.218 114.633,254.887 114.638 C 254.404 114.645,254.433 114.694,255.038 114.887 M86.316 115.502 C 85.986 115.725,86.108 115.753,86.767 115.606 C 87.873 115.359,88.113 115.186,87.343 115.193 C 87.026 115.195,86.564 115.335,86.316 115.502 M161.583 143.374 C 162.040 143.443,162.717 143.441,163.087 143.370 C 163.457 143.298,163.083 143.242,162.256 143.244 C 161.429 143.246,161.126 143.305,161.583 143.374 M167.277 143.382 C 169.046 143.435,172.023 143.435,173.893 143.383 C 175.763 143.330,174.316 143.286,170.677 143.286 C 167.038 143.286,165.508 143.329,167.277 143.382 M178.421 143.373 C 178.876 143.442,179.620 143.442,180.075 143.373 C 180.530 143.304,180.158 143.248,179.248 143.248 C 178.338 143.248,177.966 143.304,178.421 143.373 M154.962 143.666 C 155.252 143.742,155.726 143.742,156.015 143.666 C 156.305 143.590,156.068 143.528,155.489 143.528 C 154.910 143.528,154.673 143.590,154.962 143.666 M196.767 144.267 C 197.056 144.343,197.530 144.343,197.820 144.267 C 198.109 144.192,197.872 144.130,197.293 144.130 C 196.714 144.130,196.477 144.192,196.767 144.267 M127.895 145.771 C 128.184 145.847,128.658 145.847,128.947 145.771 C 129.237 145.696,129.000 145.634,128.421 145.634 C 127.842 145.634,127.605 145.696,127.895 145.771 M80.677 155.095 C 80.966 155.170,81.440 155.170,81.729 155.095 C 82.019 155.019,81.782 154.957,81.203 154.957 C 80.624 154.957,80.387 155.019,80.677 155.095 M346.235 160.000 C 346.235 160.579,346.297 160.816,346.373 160.526 C 346.448 160.237,346.448 159.763,346.373 159.474 C 346.297 159.184,346.235 159.421,346.235 160.000 M155.113 175.250 C 155.485 175.322,156.094 175.322,156.466 175.250 C 156.838 175.178,156.534 175.120,155.789 175.120 C 155.045 175.120,154.741 175.178,155.113 175.250 M176.466 175.250 C 176.838 175.322,177.447 175.322,177.820 175.250 C 178.192 175.178,177.887 175.120,177.143 175.120 C 176.398 175.120,176.094 175.178,176.466 175.250 M188.496 175.851 C 188.868 175.923,189.477 175.923,189.850 175.851 C 190.222 175.780,189.917 175.721,189.173 175.721 C 188.429 175.721,188.124 175.780,188.496 175.851 M195.564 176.448 C 195.853 176.524,196.327 176.524,196.617 176.448 C 196.906 176.372,196.669 176.310,196.090 176.310 C 195.511 176.310,195.274 176.372,195.564 176.448 M0.972 179.549 C 0.972 180.128,1.034 180.365,1.110 180.075 C 1.185 179.786,1.185 179.312,1.110 179.023 C 1.034 178.733,0.972 178.970,0.972 179.549 M326.692 180.065 C 327.147 180.134,327.891 180.134,328.346 180.065 C 328.801 179.996,328.429 179.940,327.519 179.940 C 326.609 179.940,326.237 179.996,326.692 180.065 M0.371 187.068 C 0.371 187.647,0.432 187.883,0.508 187.594 C 0.584 187.305,0.584 186.831,0.508 186.541 C 0.432 186.252,0.371 186.489,0.371 187.068 M280.000 197.143 C 280.414 197.379,280.887 197.573,281.053 197.573 C 281.218 197.573,281.015 197.379,280.602 197.143 C 280.188 196.906,279.714 196.713,279.549 196.713 C 279.383 196.713,279.586 196.906,280.000 197.143 M156.620 206.228 C 156.994 206.300,157.536 206.297,157.823 206.222 C 158.111 206.146,157.805 206.088,157.143 206.091 C 156.481 206.094,156.246 206.156,156.620 206.228 M149.398 206.528 C 149.771 206.600,150.380 206.600,150.752 206.528 C 151.124 206.456,150.820 206.398,150.075 206.398 C 149.331 206.398,149.026 206.456,149.398 206.528 M181.579 206.528 C 181.951 206.600,182.560 206.600,182.932 206.528 C 183.305 206.456,183.000 206.398,182.256 206.398 C 181.511 206.398,181.207 206.456,181.579 206.528 M189.703 207.130 C 190.077 207.202,190.618 207.199,190.906 207.124 C 191.193 207.049,190.887 206.990,190.226 206.993 C 189.564 206.996,189.329 207.058,189.703 207.130 M399.769 208.120 C 399.769 208.699,399.831 208.936,399.907 208.647 C 399.982 208.357,399.982 207.883,399.907 207.594 C 399.831 207.305,399.769 207.541,399.769 208.120 M0.070 208.722 C 0.070 209.301,0.132 209.538,0.207 209.248 C 0.283 208.959,0.283 208.485,0.207 208.195 C 0.132 207.906,0.070 208.143,0.070 208.722 M79.098 211.222 C 79.098 211.274,79.538 211.714,80.075 212.199 L 81.053 213.083 80.169 212.105 C 79.346 211.194,79.098 210.990,79.098 211.222 M309.323 211.885 C 309.654 212.155,310.195 212.508,310.526 212.670 L 311.128 212.966 310.526 212.476 C 310.195 212.206,309.654 211.853,309.323 211.691 L 308.722 211.395 309.323 211.885 M399.468 212.932 C 399.468 213.511,399.530 213.748,399.606 213.459 C 399.681 213.169,399.681 212.695,399.606 212.406 C 399.530 212.117,399.468 212.353,399.468 212.932 M0.972 220.150 C 0.972 220.729,1.034 220.966,1.110 220.677 C 1.185 220.387,1.185 219.914,1.110 219.624 C 1.034 219.335,0.972 219.571,0.972 220.150 M313.219 237.368 L 312.030 238.647 313.308 237.458 C 314.497 236.352,314.725 236.090,314.497 236.090 C 314.448 236.090,313.873 236.665,313.219 237.368 M165.041 240.213 C 165.415 240.285,165.957 240.282,166.244 240.207 C 166.532 240.131,166.226 240.073,165.564 240.076 C 164.902 240.079,164.667 240.141,165.041 240.213 M168.647 240.218 C 169.184 240.284,170.064 240.284,170.602 240.218 C 171.139 240.151,170.699 240.096,169.624 240.096 C 168.549 240.096,168.109 240.151,168.647 240.218 M172.406 240.207 C 172.695 240.283,173.169 240.283,173.459 240.207 C 173.748 240.132,173.511 240.070,172.932 240.070 C 172.353 240.070,172.117 240.132,172.406 240.207 M174.511 240.207 C 174.801 240.283,175.274 240.283,175.564 240.207 C 175.853 240.132,175.617 240.070,175.038 240.070 C 174.459 240.070,174.222 240.132,174.511 240.207 M142.331 241.410 C 142.620 241.486,143.094 241.486,143.383 241.410 C 143.673 241.335,143.436 241.273,142.857 241.273 C 142.278 241.273,142.041 241.335,142.331 241.410 M199.774 242.012 C 200.064 242.087,200.538 242.087,200.827 242.012 C 201.117 241.936,200.880 241.874,200.301 241.874 C 199.722 241.874,199.485 241.936,199.774 242.012 M167.598 264.877 C 168.055 264.947,168.732 264.945,169.102 264.873 C 169.472 264.802,169.098 264.745,168.271 264.748 C 167.444 264.750,167.141 264.808,167.598 264.877 M157.669 265.178 C 158.124 265.247,158.868 265.247,159.323 265.178 C 159.778 265.109,159.406 265.053,158.496 265.053 C 157.586 265.053,157.214 265.109,157.669 265.178 M178.726 265.178 C 179.183 265.247,179.860 265.246,180.230 265.174 C 180.600 265.103,180.226 265.046,179.398 265.048 C 178.571 265.051,178.269 265.109,178.726 265.178 M151.959 265.479 C 152.416 265.548,153.093 265.546,153.463 265.475 C 153.833 265.403,153.459 265.347,152.632 265.349 C 151.805 265.351,151.502 265.410,151.959 265.479 M87.368 270.075 C 88.015 270.737,88.611 271.278,88.694 271.278 C 88.776 271.278,88.315 270.737,87.669 270.075 C 87.023 269.414,86.427 268.872,86.344 268.872 C 86.261 268.872,86.722 269.414,87.368 270.075 M293.309 282.256 C 293.312 282.917,293.374 283.153,293.446 282.778 C 293.518 282.404,293.515 281.863,293.440 281.575 C 293.364 281.288,293.306 281.594,293.309 282.256 M52.030 334.887 C 52.591 335.466,53.118 335.940,53.201 335.940 C 53.283 335.940,52.892 335.466,52.331 334.887 C 51.770 334.308,51.243 333.835,51.160 333.835 C 51.077 333.835,51.469 334.308,52.030 334.887 M344.192 338.722 L 343.308 339.699 344.286 338.816 C 345.197 337.993,345.401 337.744,345.169 337.744 C 345.117 337.744,344.677 338.184,344.192 338.722 M57.895 341.053 C 58.877 342.045,59.748 342.857,59.831 342.857 C 59.914 342.857,59.178 342.045,58.195 341.053 C 57.213 340.060,56.342 339.248,56.259 339.248 C 56.177 339.248,56.913 340.060,57.895 341.053 M341.790 341.128 L 340.602 342.406 341.880 341.217 C 343.068 340.112,343.296 339.850,343.069 339.850 C 343.019 339.850,342.444 340.425,341.790 341.128 M338.177 344.737 L 337.293 345.714 338.271 344.831 C 339.182 344.008,339.386 343.759,339.154 343.759 C 339.102 343.759,338.662 344.199,338.177 344.737 M334.420 348.195 L 333.383 349.323 334.511 348.287 C 335.132 347.717,335.639 347.209,335.639 347.159 C 335.639 346.929,335.385 347.146,334.420 348.195 M67.368 349.869 C 67.368 349.920,67.808 350.360,68.346 350.846 L 69.323 351.729 68.440 350.752 C 67.617 349.841,67.368 349.636,67.368 349.869 M187.297 399.912 C 187.671 399.984,188.212 399.981,188.500 399.906 C 188.787 399.831,188.481 399.772,187.820 399.775 C 187.158 399.778,186.923 399.840,187.297 399.912 M193.764 400.216 C 194.221 400.285,194.897 400.283,195.267 400.212 C 195.637 400.140,195.263 400.084,194.436 400.086 C 193.609 400.088,193.306 400.147,193.764 400.216 M199.323 400.212 C 199.695 400.284,200.305 400.284,200.677 400.212 C 201.049 400.141,200.744 400.082,200.000 400.082 C 199.256 400.082,198.951 400.141,199.323 400.212 M204.891 400.216 C 205.349 400.285,206.025 400.283,206.395 400.212 C 206.765 400.140,206.391 400.084,205.564 400.086 C 204.737 400.088,204.434 400.147,204.891 400.216 " stroke="none" fill="#6814fc" fill-rule="evenodd"></path><path id="path2" d="M189.173 0.301 C 188.158 0.514,188.153 0.522,189.023 0.526 C 189.519 0.529,190.331 0.427,190.827 0.301 C 192.075 -0.017,190.682 -0.017,189.173 0.301 M192.406 0.212 C 192.778 0.284,193.387 0.284,193.759 0.212 C 194.132 0.141,193.827 0.082,193.083 0.082 C 192.338 0.082,192.034 0.141,192.406 0.212 M205.739 0.124 C 205.808 0.193,207.015 0.321,208.421 0.409 C 209.992 0.507,210.688 0.470,210.226 0.314 C 209.471 0.059,205.504 -0.109,205.739 0.124 M265.865 11.301 C 265.865 11.504,267.427 12.072,267.576 11.923 C 267.644 11.855,267.287 11.655,266.782 11.479 C 266.278 11.303,265.865 11.223,265.865 11.301 M286.917 19.998 C 286.917 20.202,289.360 21.417,289.496 21.281 C 289.559 21.218,289.005 20.872,288.264 20.512 C 287.523 20.152,286.917 19.921,286.917 19.998 M104.361 24.361 C 103.782 24.678,103.416 24.943,103.549 24.950 C 103.867 24.967,105.564 24.084,105.564 23.902 C 105.564 23.705,105.546 23.712,104.361 24.361 M335.188 52.932 C 335.834 53.594,336.430 54.135,336.513 54.135 C 336.596 54.135,336.135 53.594,335.489 52.932 C 334.843 52.271,334.246 51.729,334.164 51.729 C 334.081 51.729,334.542 52.271,335.188 52.932 M58.340 58.872 L 55.489 61.805 58.421 58.953 C 60.034 57.385,61.353 56.066,61.353 56.021 C 61.353 55.803,60.988 56.149,58.340 58.872 M341.353 58.797 C 342.252 59.707,343.055 60.451,343.137 60.451 C 343.220 60.451,342.553 59.707,341.654 58.797 C 340.756 57.887,339.953 57.143,339.870 57.143 C 339.787 57.143,340.455 57.887,341.353 58.797 M346.754 64.436 C 348.001 65.764,348.271 66.003,348.271 65.777 C 348.271 65.729,347.628 65.086,346.842 64.348 L 345.414 63.008 346.754 64.436 M157.222 106.378 C 157.596 106.450,158.137 106.447,158.425 106.372 C 158.712 106.297,158.406 106.238,157.744 106.241 C 157.083 106.245,156.847 106.306,157.222 106.378 M150.155 106.682 C 150.612 106.751,151.288 106.749,151.658 106.678 C 152.028 106.606,151.654 106.550,150.827 106.552 C 150.000 106.554,149.697 106.613,150.155 106.682 M189.703 106.679 C 190.077 106.751,190.618 106.748,190.906 106.673 C 191.193 106.598,190.887 106.539,190.226 106.542 C 189.564 106.545,189.329 106.607,189.703 106.679 M196.015 106.979 C 196.387 107.051,196.996 107.051,197.368 106.979 C 197.741 106.907,197.436 106.849,196.692 106.849 C 195.947 106.849,195.643 106.907,196.015 106.979 M140.075 107.280 C 140.447 107.352,141.056 107.352,141.429 107.280 C 141.801 107.208,141.496 107.150,140.752 107.150 C 140.008 107.150,139.703 107.208,140.075 107.280 M200.226 107.280 C 200.598 107.352,201.207 107.352,201.579 107.280 C 201.951 107.208,201.647 107.150,200.902 107.150 C 200.158 107.150,199.853 107.208,200.226 107.280 M132.556 107.881 C 132.929 107.953,133.538 107.953,133.910 107.881 C 134.282 107.810,133.977 107.751,133.233 107.751 C 132.489 107.751,132.184 107.810,132.556 107.881 M255.038 114.887 C 256.066 115.217,256.857 115.217,256.090 114.887 C 255.759 114.745,255.218 114.633,254.887 114.638 C 254.404 114.645,254.433 114.694,255.038 114.887 M86.316 115.502 C 85.986 115.725,86.108 115.753,86.767 115.606 C 87.873 115.359,88.113 115.186,87.343 115.193 C 87.026 115.195,86.564 115.335,86.316 115.502 M161.583 143.374 C 162.040 143.443,162.717 143.441,163.087 143.370 C 163.457 143.298,163.083 143.242,162.256 143.244 C 161.429 143.246,161.126 143.305,161.583 143.374 M167.277 143.382 C 169.046 143.435,172.023 143.435,173.893 143.383 C 175.763 143.330,174.316 143.286,170.677 143.286 C 167.038 143.286,165.508 143.329,167.277 143.382 M178.421 143.373 C 178.876 143.442,179.620 143.442,180.075 143.373 C 180.530 143.304,180.158 143.248,179.248 143.248 C 178.338 143.248,177.966 143.304,178.421 143.373 M154.962 143.666 C 155.252 143.742,155.726 143.742,156.015 143.666 C 156.305 143.590,156.068 143.528,155.489 143.528 C 154.910 143.528,154.673 143.590,154.962 143.666 M196.767 144.267 C 197.056 144.343,197.530 144.343,197.820 144.267 C 198.109 144.192,197.872 144.130,197.293 144.130 C 196.714 144.130,196.477 144.192,196.767 144.267 M127.895 145.771 C 128.184 145.847,128.658 145.847,128.947 145.771 C 129.237 145.696,129.000 145.634,128.421 145.634 C 127.842 145.634,127.605 145.696,127.895 145.771 M80.677 155.095 C 80.966 155.170,81.440 155.170,81.729 155.095 C 82.019 155.019,81.782 154.957,81.203 154.957 C 80.624 154.957,80.387 155.019,80.677 155.095 M346.235 160.000 C 346.235 160.579,346.297 160.816,346.373 160.526 C 346.448 160.237,346.448 159.763,346.373 159.474 C 346.297 159.184,346.235 159.421,346.235 160.000 M155.113 175.250 C 155.485 175.322,156.094 175.322,156.466 175.250 C 156.838 175.178,156.534 175.120,155.789 175.120 C 155.045 175.120,154.741 175.178,155.113 175.250 M176.466 175.250 C 176.838 175.322,177.447 175.322,177.820 175.250 C 178.192 175.178,177.887 175.120,177.143 175.120 C 176.398 175.120,176.094 175.178,176.466 175.250 M188.496 175.851 C 188.868 175.923,189.477 175.923,189.850 175.851 C 190.222 175.780,189.917 175.721,189.173 175.721 C 188.429 175.721,188.124 175.780,188.496 175.851 M195.564 176.448 C 195.853 176.524,196.327 176.524,196.617 176.448 C 196.906 176.372,196.669 176.310,196.090 176.310 C 195.511 176.310,195.274 176.372,195.564 176.448 M0.972 179.549 C 0.972 180.128,1.034 180.365,1.110 180.075 C 1.185 179.786,1.185 179.312,1.110 179.023 C 1.034 178.733,0.972 178.970,0.972 179.549 M326.692 180.065 C 327.147 180.134,327.891 180.134,328.346 180.065 C 328.801 179.996,328.429 179.940,327.519 179.940 C 326.609 179.940,326.237 179.996,326.692 180.065 M0.371 187.068 C 0.371 187.647,0.432 187.883,0.508 187.594 C 0.584 187.305,0.584 186.831,0.508 186.541 C 0.432 186.252,0.371 186.489,0.371 187.068 M280.000 197.143 C 280.414 197.379,280.887 197.573,281.053 197.573 C 281.218 197.573,281.015 197.379,280.602 197.143 C 280.188 196.906,279.714 196.713,279.549 196.713 C 279.383 196.713,279.586 196.906,280.000 197.143 M156.620 206.228 C 156.994 206.300,157.536 206.297,157.823 206.222 C 158.111 206.146,157.805 206.088,157.143 206.091 C 156.481 206.094,156.246 206.156,156.620 206.228 M149.398 206.528 C 149.771 206.600,150.380 206.600,150.752 206.528 C 151.124 206.456,150.820 206.398,150.075 206.398 C 149.331 206.398,149.026 206.456,149.398 206.528 M181.579 206.528 C 181.951 206.600,182.560 206.600,182.932 206.528 C 183.305 206.456,183.000 206.398,182.256 206.398 C 181.511 206.398,181.207 206.456,181.579 206.528 M189.703 207.130 C 190.077 207.202,190.618 207.199,190.906 207.124 C 191.193 207.049,190.887 206.990,190.226 206.993 C 189.564 206.996,189.329 207.058,189.703 207.130 M399.769 208.120 C 399.769 208.699,399.831 208.936,399.907 208.647 C 399.982 208.357,399.982 207.883,399.907 207.594 C 399.831 207.305,399.769 207.541,399.769 208.120 M0.070 208.722 C 0.070 209.301,0.132 209.538,0.207 209.248 C 0.283 208.959,0.283 208.485,0.207 208.195 C 0.132 207.906,0.070 208.143,0.070 208.722 M79.098 211.222 C 79.098 211.274,79.538 211.714,80.075 212.199 L 81.053 213.083 80.169 212.105 C 79.346 211.194,79.098 210.990,79.098 211.222 M309.323 211.885 C 309.654 212.155,310.195 212.508,310.526 212.670 L 311.128 212.966 310.526 212.476 C 310.195 212.206,309.654 211.853,309.323 211.691 L 308.722 211.395 309.323 211.885 M399.468 212.932 C 399.468 213.511,399.530 213.748,399.606 213.459 C 399.681 213.169,399.681 212.695,399.606 212.406 C 399.530 212.117,399.468 212.353,399.468 212.932 M0.972 220.150 C 0.972 220.729,1.034 220.966,1.110 220.677 C 1.185 220.387,1.185 219.914,1.110 219.624 C 1.034 219.335,0.972 219.571,0.972 220.150 M313.219 237.368 L 312.030 238.647 313.308 237.458 C 314.497 236.352,314.725 236.090,314.497 236.090 C 314.448 236.090,313.873 236.665,313.219 237.368 M165.041 240.213 C 165.415 240.285,165.957 240.282,166.244 240.207 C 166.532 240.131,166.226 240.073,165.564 240.076 C 164.902 240.079,164.667 240.141,165.041 240.213 M168.647 240.218 C 169.184 240.284,170.064 240.284,170.602 240.218 C 171.139 240.151,170.699 240.096,169.624 240.096 C 168.549 240.096,168.109 240.151,168.647 240.218 M172.406 240.207 C 172.695 240.283,173.169 240.283,173.459 240.207 C 173.748 240.132,173.511 240.070,172.932 240.070 C 172.353 240.070,172.117 240.132,172.406 240.207 M174.511 240.207 C 174.801 240.283,175.274 240.283,175.564 240.207 C 175.853 240.132,175.617 240.070,175.038 240.070 C 174.459 240.070,174.222 240.132,174.511 240.207 M142.331 241.410 C 142.620 241.486,143.094 241.486,143.383 241.410 C 143.673 241.335,143.436 241.273,142.857 241.273 C 142.278 241.273,142.041 241.335,142.331 241.410 M199.774 242.012 C 200.064 242.087,200.538 242.087,200.827 242.012 C 201.117 241.936,200.880 241.874,200.301 241.874 C 199.722 241.874,199.485 241.936,199.774 242.012 M167.598 264.877 C 168.055 264.947,168.732 264.945,169.102 264.873 C 169.472 264.802,169.098 264.745,168.271 264.748 C 167.444 264.750,167.141 264.808,167.598 264.877 M157.669 265.178 C 158.124 265.247,158.868 265.247,159.323 265.178 C 159.778 265.109,159.406 265.053,158.496 265.053 C 157.586 265.053,157.214 265.109,157.669 265.178 M178.726 265.178 C 179.183 265.247,179.860 265.246,180.230 265.174 C 180.600 265.103,180.226 265.046,179.398 265.048 C 178.571 265.051,178.269 265.109,178.726 265.178 M151.959 265.479 C 152.416 265.548,153.093 265.546,153.463 265.475 C 153.833 265.403,153.459 265.347,152.632 265.349 C 151.805 265.351,151.502 265.410,151.959 265.479 M87.368 270.075 C 88.015 270.737,88.611 271.278,88.694 271.278 C 88.776 271.278,88.315 270.737,87.669 270.075 C 87.023 269.414,86.427 268.872,86.344 268.872 C 86.261 268.872,86.722 269.414,87.368 270.075 M293.309 282.256 C 293.312 282.917,293.374 283.153,293.446 282.778 C 293.518 282.404,293.515 281.863,293.440 281.575 C 293.364 281.288,293.306 281.594,293.309 282.256 M52.030 334.887 C 52.591 335.466,53.118 335.940,53.201 335.940 C 53.283 335.940,52.892 335.466,52.331 334.887 C 51.770 334.308,51.243 333.835,51.160 333.835 C 51.077 333.835,51.469 334.308,52.030 334.887 M344.192 338.722 L 343.308 339.699 344.286 338.816 C 345.197 337.993,345.401 337.744,345.169 337.744 C 345.117 337.744,344.677 338.184,344.192 338.722 M57.895 341.053 C 58.877 342.045,59.748 342.857,59.831 342.857 C 59.914 342.857,59.178 342.045,58.195 341.053 C 57.213 340.060,56.342 339.248,56.259 339.248 C 56.177 339.248,56.913 340.060,57.895 341.053 M341.790 341.128 L 340.602 342.406 341.880 341.217 C 343.068 340.112,343.296 339.850,343.069 339.850 C 343.019 339.850,342.444 340.425,341.790 341.128 M338.177 344.737 L 337.293 345.714 338.271 344.831 C 339.182 344.008,339.386 343.759,339.154 343.759 C 339.102 343.759,338.662 344.199,338.177 344.737 M334.420 348.195 L 333.383 349.323 334.511 348.287 C 335.132 347.717,335.639 347.209,335.639 347.159 C 335.639 346.929,335.385 347.146,334.420 348.195 M67.368 349.869 C 67.368 349.920,67.808 350.360,68.346 350.846 L 69.323 351.729 68.440 350.752 C 67.617 349.841,67.368 349.636,67.368 349.869 M187.297 399.912 C 187.671 399.984,188.212 399.981,188.500 399.906 C 188.787 399.831,188.481 399.772,187.820 399.775 C 187.158 399.778,186.923 399.840,187.297 399.912 M193.764 400.216 C 194.221 400.285,194.897 400.283,195.267 400.212 C 195.637 400.140,195.263 400.084,194.436 400.086 C 193.609 400.088,193.306 400.147,193.764 400.216 M199.323 400.212 C 199.695 400.284,200.305 400.284,200.677 400.212 C 201.049 400.141,200.744 400.082,200.000 400.082 C 199.256 400.082,198.951 400.141,199.323 400.212 M204.891 400.216 C 205.349 400.285,206.025 400.283,206.395 400.212 C 206.765 400.140,206.391 400.084,205.564 400.086 C 204.737 400.088,204.434 400.147,204.891 400.216 " stroke="none" fill="#6814fc" fill-rule="evenodd"></path><path id="path3" d="M189.173 0.301 C 188.158 0.514,188.153 0.522,189.023 0.526 C 189.519 0.529,190.331 0.427,190.827 0.301 C 192.075 -0.017,190.682 -0.017,189.173 0.301 M192.406 0.212 C 192.778 0.284,193.387 0.284,193.759 0.212 C 194.132 0.141,193.827 0.082,193.083 0.082 C 192.338 0.082,192.034 0.141,192.406 0.212 M205.739 0.124 C 205.808 0.193,207.015 0.321,208.421 0.409 C 209.992 0.507,210.688 0.470,210.226 0.314 C 209.471 0.059,205.504 -0.109,205.739 0.124 M265.865 11.301 C 265.865 11.504,267.427 12.072,267.576 11.923 C 267.644 11.855,267.287 11.655,266.782 11.479 C 266.278 11.303,265.865 11.223,265.865 11.301 M286.917 19.998 C 286.917 20.202,289.360 21.417,289.496 21.281 C 289.559 21.218,289.005 20.872,288.264 20.512 C 287.523 20.152,286.917 19.921,286.917 19.998 M104.361 24.361 C 103.782 24.678,103.416 24.943,103.549 24.950 C 103.867 24.967,105.564 24.084,105.564 23.902 C 105.564 23.705,105.546 23.712,104.361 24.361 M335.188 52.932 C 335.834 53.594,336.430 54.135,336.513 54.135 C 336.596 54.135,336.135 53.594,335.489 52.932 C 334.843 52.271,334.246 51.729,334.164 51.729 C 334.081 51.729,334.542 52.271,335.188 52.932 M58.340 58.872 L 55.489 61.805 58.421 58.953 C 60.034 57.385,61.353 56.066,61.353 56.021 C 61.353 55.803,60.988 56.149,58.340 58.872 M341.353 58.797 C 342.252 59.707,343.055 60.451,343.137 60.451 C 343.220 60.451,342.553 59.707,341.654 58.797 C 340.756 57.887,339.953 57.143,339.870 57.143 C 339.787 57.143,340.455 57.887,341.353 58.797 M346.754 64.436 C 348.001 65.764,348.271 66.003,348.271 65.777 C 348.271 65.729,347.628 65.086,346.842 64.348 L 345.414 63.008 346.754 64.436 M157.222 106.378 C 157.596 106.450,158.137 106.447,158.425 106.372 C 158.712 106.297,158.406 106.238,157.744 106.241 C 157.083 106.245,156.847 106.306,157.222 106.378 M150.155 106.682 C 150.612 106.751,151.288 106.749,151.658 106.678 C 152.028 106.606,151.654 106.550,150.827 106.552 C 150.000 106.554,149.697 106.613,150.155 106.682 M189.703 106.679 C 190.077 106.751,190.618 106.748,190.906 106.673 C 191.193 106.598,190.887 106.539,190.226 106.542 C 189.564 106.545,189.329 106.607,189.703 106.679 M196.015 106.979 C 196.387 107.051,196.996 107.051,197.368 106.979 C 197.741 106.907,197.436 106.849,196.692 106.849 C 195.947 106.849,195.643 106.907,196.015 106.979 M140.075 107.280 C 140.447 107.352,141.056 107.352,141.429 107.280 C 141.801 107.208,141.496 107.150,140.752 107.150 C 140.008 107.150,139.703 107.208,140.075 107.280 M200.226 107.280 C 200.598 107.352,201.207 107.352,201.579 107.280 C 201.951 107.208,201.647 107.150,200.902 107.150 C 200.158 107.150,199.853 107.208,200.226 107.280 M132.556 107.881 C 132.929 107.953,133.538 107.953,133.910 107.881 C 134.282 107.810,133.977 107.751,133.233 107.751 C 132.489 107.751,132.184 107.810,132.556 107.881 M255.038 114.887 C 256.066 115.217,256.857 115.217,256.090 114.887 C 255.759 114.745,255.218 114.633,254.887 114.638 C 254.404 114.645,254.433 114.694,255.038 114.887 M86.316 115.502 C 85.986 115.725,86.108 115.753,86.767 115.606 C 87.873 115.359,88.113 115.186,87.343 115.193 C 87.026 115.195,86.564 115.335,86.316 115.502 M161.583 143.374 C 162.040 143.443,162.717 143.441,163.087 143.370 C 163.457 143.298,163.083 143.242,162.256 143.244 C 161.429 143.246,161.126 143.305,161.583 143.374 M167.277 143.382 C 169.046 143.435,172.023 143.435,173.893 143.383 C 175.763 143.330,174.316 143.286,170.677 143.286 C 167.038 143.286,165.508 143.329,167.277 143.382 M178.421 143.373 C 178.876 143.442,179.620 143.442,180.075 143.373 C 180.530 143.304,180.158 143.248,179.248 143.248 C 178.338 143.248,177.966 143.304,178.421 143.373 M154.962 143.666 C 155.252 143.742,155.726 143.742,156.015 143.666 C 156.305 143.590,156.068 143.528,155.489 143.528 C 154.910 143.528,154.673 143.590,154.962 143.666 M196.767 144.267 C 197.056 144.343,197.530 144.343,197.820 144.267 C 198.109 144.192,197.872 144.130,197.293 144.130 C 196.714 144.130,196.477 144.192,196.767 144.267 M127.895 145.771 C 128.184 145.847,128.658 145.847,128.947 145.771 C 129.237 145.696,129.000 145.634,128.421 145.634 C 127.842 145.634,127.605 145.696,127.895 145.771 M80.677 155.095 C 80.966 155.170,81.440 155.170,81.729 155.095 C 82.019 155.019,81.782 154.957,81.203 154.957 C 80.624 154.957,80.387 155.019,80.677 155.095 M346.235 160.000 C 346.235 160.579,346.297 160.816,346.373 160.526 C 346.448 160.237,346.448 159.763,346.373 159.474 C 346.297 159.184,346.235 159.421,346.235 160.000 M155.113 175.250 C 155.485 175.322,156.094 175.322,156.466 175.250 C 156.838 175.178,156.534 175.120,155.789 175.120 C 155.045 175.120,154.741 175.178,155.113 175.250 M176.466 175.250 C 176.838 175.322,177.447 175.322,177.820 175.250 C 178.192 175.178,177.887 175.120,177.143 175.120 C 176.398 175.120,176.094 175.178,176.466 175.250 M188.496 175.851 C 188.868 175.923,189.477 175.923,189.850 175.851 C 190.222 175.780,189.917 175.721,189.173 175.721 C 188.429 175.721,188.124 175.780,188.496 175.851 M195.564 176.448 C 195.853 176.524,196.327 176.524,196.617 176.448 C 196.906 176.372,196.669 176.310,196.090 176.310 C 195.511 176.310,195.274 176.372,195.564 176.448 M0.972 179.549 C 0.972 180.128,1.034 180.365,1.110 180.075 C 1.185 179.786,1.185 179.312,1.110 179.023 C 1.034 178.733,0.972 178.970,0.972 179.549 M326.692 180.065 C 327.147 180.134,327.891 180.134,328.346 180.065 C 328.801 179.996,328.429 179.940,327.519 179.940 C 326.609 179.940,326.237 179.996,326.692 180.065 M0.371 187.068 C 0.371 187.647,0.432 187.883,0.508 187.594 C 0.584 187.305,0.584 186.831,0.508 186.541 C 0.432 186.252,0.371 186.489,0.371 187.068 M280.000 197.143 C 280.414 197.379,280.887 197.573,281.053 197.573 C 281.218 197.573,281.015 197.379,280.602 197.143 C 280.188 196.906,279.714 196.713,279.549 196.713 C 279.383 196.713,279.586 196.906,280.000 197.143 M156.620 206.228 C 156.994 206.300,157.536 206.297,157.823 206.222 C 158.111 206.146,157.805 206.088,157.143 206.091 C 156.481 206.094,156.246 206.156,156.620 206.228 M149.398 206.528 C 149.771 206.600,150.380 206.600,150.752 206.528 C 151.124 206.456,150.820 206.398,150.075 206.398 C 149.331 206.398,149.026 206.456,149.398 206.528 M181.579 206.528 C 181.951 206.600,182.560 206.600,182.932 206.528 C 183.305 206.456,183.000 206.398,182.256 206.398 C 181.511 206.398,181.207 206.456,181.579 206.528 M189.703 207.130 C 190.077 207.202,190.618 207.199,190.906 207.124 C 191.193 207.049,190.887 206.990,190.226 206.993 C 189.564 206.996,189.329 207.058,189.703 207.130 M399.769 208.120 C 399.769 208.699,399.831 208.936,399.907 208.647 C 399.982 208.357,399.982 207.883,399.907 207.594 C 399.831 207.305,399.769 207.541,399.769 208.120 M0.070 208.722 C 0.070 209.301,0.132 209.538,0.207 209.248 C 0.283 208.959,0.283 208.485,0.207 208.195 C 0.132 207.906,0.070 208.143,0.070 208.722 M79.098 211.222 C 79.098 211.274,79.538 211.714,80.075 212.199 L 81.053 213.083 80.169 212.105 C 79.346 211.194,79.098 210.990,79.098 211.222 M309.323 211.885 C 309.654 212.155,310.195 212.508,310.526 212.670 L 311.128 212.966 310.526 212.476 C 310.195 212.206,309.654 211.853,309.323 211.691 L 308.722 211.395 309.323 211.885 M399.468 212.932 C 399.468 213.511,399.530 213.748,399.606 213.459 C 399.681 213.169,399.681 212.695,399.606 212.406 C 399.530 212.117,399.468 212.353,399.468 212.932 M0.972 220.150 C 0.972 220.729,1.034 220.966,1.110 220.677 C 1.185 220.387,1.185 219.914,1.110 219.624 C 1.034 219.335,0.972 219.571,0.972 220.150 M313.219 237.368 L 312.030 238.647 313.308 237.458 C 314.497 236.352,314.725 236.090,314.497 236.090 C 314.448 236.090,313.873 236.665,313.219 237.368 M165.041 240.213 C 165.415 240.285,165.957 240.282,166.244 240.207 C 166.532 240.131,166.226 240.073,165.564 240.076 C 164.902 240.079,164.667 240.141,165.041 240.213 M168.647 240.218 C 169.184 240.284,170.064 240.284,170.602 240.218 C 171.139 240.151,170.699 240.096,169.624 240.096 C 168.549 240.096,168.109 240.151,168.647 240.218 M172.406 240.207 C 172.695 240.283,173.169 240.283,173.459 240.207 C 173.748 240.132,173.511 240.070,172.932 240.070 C 172.353 240.070,172.117 240.132,172.406 240.207 M174.511 240.207 C 174.801 240.283,175.274 240.283,175.564 240.207 C 175.853 240.132,175.617 240.070,175.038 240.070 C 174.459 240.070,174.222 240.132,174.511 240.207 M142.331 241.410 C 142.620 241.486,143.094 241.486,143.383 241.410 C 143.673 241.335,143.436 241.273,142.857 241.273 C 142.278 241.273,142.041 241.335,142.331 241.410 M199.774 242.012 C 200.064 242.087,200.538 242.087,200.827 242.012 C 201.117 241.936,200.880 241.874,200.301 241.874 C 199.722 241.874,199.485 241.936,199.774 242.012 M167.598 264.877 C 168.055 264.947,168.732 264.945,169.102 264.873 C 169.472 264.802,169.098 264.745,168.271 264.748 C 167.444 264.750,167.141 264.808,167.598 264.877 M157.669 265.178 C 158.124 265.247,158.868 265.247,159.323 265.178 C 159.778 265.109,159.406 265.053,158.496 265.053 C 157.586 265.053,157.214 265.109,157.669 265.178 M178.726 265.178 C 179.183 265.247,179.860 265.246,180.230 265.174 C 180.600 265.103,180.226 265.046,179.398 265.048 C 178.571 265.051,178.269 265.109,178.726 265.178 M151.959 265.479 C 152.416 265.548,153.093 265.546,153.463 265.475 C 153.833 265.403,153.459 265.347,152.632 265.349 C 151.805 265.351,151.502 265.410,151.959 265.479 M87.368 270.075 C 88.015 270.737,88.611 271.278,88.694 271.278 C 88.776 271.278,88.315 270.737,87.669 270.075 C 87.023 269.414,86.427 268.872,86.344 268.872 C 86.261 268.872,86.722 269.414,87.368 270.075 M293.309 282.256 C 293.312 282.917,293.374 283.153,293.446 282.778 C 293.518 282.404,293.515 281.863,293.440 281.575 C 293.364 281.288,293.306 281.594,293.309 282.256 M52.030 334.887 C 52.591 335.466,53.118 335.940,53.201 335.940 C 53.283 335.940,52.892 335.466,52.331 334.887 C 51.770 334.308,51.243 333.835,51.160 333.835 C 51.077 333.835,51.469 334.308,52.030 334.887 M344.192 338.722 L 343.308 339.699 344.286 338.816 C 345.197 337.993,345.401 337.744,345.169 337.744 C 345.117 337.744,344.677 338.184,344.192 338.722 M57.895 341.053 C 58.877 342.045,59.748 342.857,59.831 342.857 C 59.914 342.857,59.178 342.045,58.195 341.053 C 57.213 340.060,56.342 339.248,56.259 339.248 C 56.177 339.248,56.913 340.060,57.895 341.053 M341.790 341.128 L 340.602 342.406 341.880 341.217 C 343.068 340.112,343.296 339.850,343.069 339.850 C 343.019 339.850,342.444 340.425,341.790 341.128 M338.177 344.737 L 337.293 345.714 338.271 344.831 C 339.182 344.008,339.386 343.759,339.154 343.759 C 339.102 343.759,338.662 344.199,338.177 344.737 M334.420 348.195 L 333.383 349.323 334.511 348.287 C 335.132 347.717,335.639 347.209,335.639 347.159 C 335.639 346.929,335.385 347.146,334.420 348.195 M67.368 349.869 C 67.368 349.920,67.808 350.360,68.346 350.846 L 69.323 351.729 68.440 350.752 C 67.617 349.841,67.368 349.636,67.368 349.869 M187.297 399.912 C 187.671 399.984,188.212 399.981,188.500 399.906 C 188.787 399.831,188.481 399.772,187.820 399.775 C 187.158 399.778,186.923 399.840,187.297 399.912 M193.764 400.216 C 194.221 400.285,194.897 400.283,195.267 400.212 C 195.637 400.140,195.263 400.084,194.436 400.086 C 193.609 400.088,193.306 400.147,193.764 400.216 M199.323 400.212 C 199.695 400.284,200.305 400.284,200.677 400.212 C 201.049 400.141,200.744 400.082,200.000 400.082 C 199.256 400.082,198.951 400.141,199.323 400.212 M204.891 400.216 C 205.349 400.285,206.025 400.283,206.395 400.212 C 206.765 400.140,206.391 400.084,205.564 400.086 C 204.737 400.088,204.434 400.147,204.891 400.216 " stroke="none" fill="#6814fc" fill-rule="evenodd"></path><path id="path4" d="M189.173 0.301 C 188.158 0.514,188.153 0.522,189.023 0.526 C 189.519 0.529,190.331 0.427,190.827 0.301 C 192.075 -0.017,190.682 -0.017,189.173 0.301 M192.406 0.212 C 192.778 0.284,193.387 0.284,193.759 0.212 C 194.132 0.141,193.827 0.082,193.083 0.082 C 192.338 0.082,192.034 0.141,192.406 0.212 M205.739 0.124 C 205.808 0.193,207.015 0.321,208.421 0.409 C 209.992 0.507,210.688 0.470,210.226 0.314 C 209.471 0.059,205.504 -0.109,205.739 0.124 M265.865 11.301 C 265.865 11.504,267.427 12.072,267.576 11.923 C 267.644 11.855,267.287 11.655,266.782 11.479 C 266.278 11.303,265.865 11.223,265.865 11.301 M286.917 19.998 C 286.917 20.202,289.360 21.417,289.496 21.281 C 289.559 21.218,289.005 20.872,288.264 20.512 C 287.523 20.152,286.917 19.921,286.917 19.998 M104.361 24.361 C 103.782 24.678,103.416 24.943,103.549 24.950 C 103.867 24.967,105.564 24.084,105.564 23.902 C 105.564 23.705,105.546 23.712,104.361 24.361 M335.188 52.932 C 335.834 53.594,336.430 54.135,336.513 54.135 C 336.596 54.135,336.135 53.594,335.489 52.932 C 334.843 52.271,334.246 51.729,334.164 51.729 C 334.081 51.729,334.542 52.271,335.188 52.932 M58.340 58.872 L 55.489 61.805 58.421 58.953 C 60.034 57.385,61.353 56.066,61.353 56.021 C 61.353 55.803,60.988 56.149,58.340 58.872 M341.353 58.797 C 342.252 59.707,343.055 60.451,343.137 60.451 C 343.220 60.451,342.553 59.707,341.654 58.797 C 340.756 57.887,339.953 57.143,339.870 57.143 C 339.787 57.143,340.455 57.887,341.353 58.797 M346.754 64.436 C 348.001 65.764,348.271 66.003,348.271 65.777 C 348.271 65.729,347.628 65.086,346.842 64.348 L 345.414 63.008 346.754 64.436 M157.222 106.378 C 157.596 106.450,158.137 106.447,158.425 106.372 C 158.712 106.297,158.406 106.238,157.744 106.241 C 157.083 106.245,156.847 106.306,157.222 106.378 M150.155 106.682 C 150.612 106.751,151.288 106.749,151.658 106.678 C 152.028 106.606,151.654 106.550,150.827 106.552 C 150.000 106.554,149.697 106.613,150.155 106.682 M189.703 106.679 C 190.077 106.751,190.618 106.748,190.906 106.673 C 191.193 106.598,190.887 106.539,190.226 106.542 C 189.564 106.545,189.329 106.607,189.703 106.679 M196.015 106.979 C 196.387 107.051,196.996 107.051,197.368 106.979 C 197.741 106.907,197.436 106.849,196.692 106.849 C 195.947 106.849,195.643 106.907,196.015 106.979 M140.075 107.280 C 140.447 107.352,141.056 107.352,141.429 107.280 C 141.801 107.208,141.496 107.150,140.752 107.150 C 140.008 107.150,139.703 107.208,140.075 107.280 M200.226 107.280 C 200.598 107.352,201.207 107.352,201.579 107.280 C 201.951 107.208,201.647 107.150,200.902 107.150 C 200.158 107.150,199.853 107.208,200.226 107.280 M132.556 107.881 C 132.929 107.953,133.538 107.953,133.910 107.881 C 134.282 107.810,133.977 107.751,133.233 107.751 C 132.489 107.751,132.184 107.810,132.556 107.881 M255.038 114.887 C 256.066 115.217,256.857 115.217,256.090 114.887 C 255.759 114.745,255.218 114.633,254.887 114.638 C 254.404 114.645,254.433 114.694,255.038 114.887 M86.316 115.502 C 85.986 115.725,86.108 115.753,86.767 115.606 C 87.873 115.359,88.113 115.186,87.343 115.193 C 87.026 115.195,86.564 115.335,86.316 115.502 M161.583 143.374 C 162.040 143.443,162.717 143.441,163.087 143.370 C 163.457 143.298,163.083 143.242,162.256 143.244 C 161.429 143.246,161.126 143.305,161.583 143.374 M167.277 143.382 C 169.046 143.435,172.023 143.435,173.893 143.383 C 175.763 143.330,174.316 143.286,170.677 143.286 C 167.038 143.286,165.508 143.329,167.277 143.382 M178.421 143.373 C 178.876 143.442,179.620 143.442,180.075 143.373 C 180.530 143.304,180.158 143.248,179.248 143.248 C 178.338 143.248,177.966 143.304,178.421 143.373 M154.962 143.666 C 155.252 143.742,155.726 143.742,156.015 143.666 C 156.305 143.590,156.068 143.528,155.489 143.528 C 154.910 143.528,154.673 143.590,154.962 143.666 M196.767 144.267 C 197.056 144.343,197.530 144.343,197.820 144.267 C 198.109 144.192,197.872 144.130,197.293 144.130 C 196.714 144.130,196.477 144.192,196.767 144.267 M127.895 145.771 C 128.184 145.847,128.658 145.847,128.947 145.771 C 129.237 145.696,129.000 145.634,128.421 145.634 C 127.842 145.634,127.605 145.696,127.895 145.771 M80.677 155.095 C 80.966 155.170,81.440 155.170,81.729 155.095 C 82.019 155.019,81.782 154.957,81.203 154.957 C 80.624 154.957,80.387 155.019,80.677 155.095 M346.235 160.000 C 346.235 160.579,346.297 160.816,346.373 160.526 C 346.448 160.237,346.448 159.763,346.373 159.474 C 346.297 159.184,346.235 159.421,346.235 160.000 M155.113 175.250 C 155.485 175.322,156.094 175.322,156.466 175.250 C 156.838 175.178,156.534 175.120,155.789 175.120 C 155.045 175.120,154.741 175.178,155.113 175.250 M176.466 175.250 C 176.838 175.322,177.447 175.322,177.820 175.250 C 178.192 175.178,177.887 175.120,177.143 175.120 C 176.398 175.120,176.094 175.178,176.466 175.250 M188.496 175.851 C 188.868 175.923,189.477 175.923,189.850 175.851 C 190.222 175.780,189.917 175.721,189.173 175.721 C 188.429 175.721,188.124 175.780,188.496 175.851 M195.564 176.448 C 195.853 176.524,196.327 176.524,196.617 176.448 C 196.906 176.372,196.669 176.310,196.090 176.310 C 195.511 176.310,195.274 176.372,195.564 176.448 M0.972 179.549 C 0.972 180.128,1.034 180.365,1.110 180.075 C 1.185 179.786,1.185 179.312,1.110 179.023 C 1.034 178.733,0.972 178.970,0.972 179.549 M326.692 180.065 C 327.147 180.134,327.891 180.134,328.346 180.065 C 328.801 179.996,328.429 179.940,327.519 179.940 C 326.609 179.940,326.237 179.996,326.692 180.065 M0.371 187.068 C 0.371 187.647,0.432 187.883,0.508 187.594 C 0.584 187.305,0.584 186.831,0.508 186.541 C 0.432 186.252,0.371 186.489,0.371 187.068 M280.000 197.143 C 280.414 197.379,280.887 197.573,281.053 197.573 C 281.218 197.573,281.015 197.379,280.602 197.143 C 280.188 196.906,279.714 196.713,279.549 196.713 C 279.383 196.713,279.586 196.906,280.000 197.143 M156.620 206.228 C 156.994 206.300,157.536 206.297,157.823 206.222 C 158.111 206.146,157.805 206.088,157.143 206.091 C 156.481 206.094,156.246 206.156,156.620 206.228 M149.398 206.528 C 149.771 206.600,150.380 206.600,150.752 206.528 C 151.124 206.456,150.820 206.398,150.075 206.398 C 149.331 206.398,149.026 206.456,149.398 206.528 M181.579 206.528 C 181.951 206.600,182.560 206.600,182.932 206.528 C 183.305 206.456,183.000 206.398,182.256 206.398 C 181.511 206.398,181.207 206.456,181.579 206.528 M189.703 207.130 C 190.077 207.202,190.618 207.199,190.906 207.124 C 191.193 207.049,190.887 206.990,190.226 206.993 C 189.564 206.996,189.329 207.058,189.703 207.130 M399.769 208.120 C 399.769 208.699,399.831 208.936,399.907 208.647 C 399.982 208.357,399.982 207.883,399.907 207.594 C 399.831 207.305,399.769 207.541,399.769 208.120 M0.070 208.722 C 0.070 209.301,0.132 209.538,0.207 209.248 C 0.283 208.959,0.283 208.485,0.207 208.195 C 0.132 207.906,0.070 208.143,0.070 208.722 M79.098 211.222 C 79.098 211.274,79.538 211.714,80.075 212.199 L 81.053 213.083 80.169 212.105 C 79.346 211.194,79.098 210.990,79.098 211.222 M309.323 211.885 C 309.654 212.155,310.195 212.508,310.526 212.670 L 311.128 212.966 310.526 212.476 C 310.195 212.206,309.654 211.853,309.323 211.691 L 308.722 211.395 309.323 211.885 M399.468 212.932 C 399.468 213.511,399.530 213.748,399.606 213.459 C 399.681 213.169,399.681 212.695,399.606 212.406 C 399.530 212.117,399.468 212.353,399.468 212.932 M0.972 220.150 C 0.972 220.729,1.034 220.966,1.110 220.677 C 1.185 220.387,1.185 219.914,1.110 219.624 C 1.034 219.335,0.972 219.571,0.972 220.150 M313.219 237.368 L 312.030 238.647 313.308 237.458 C 314.497 236.352,314.725 236.090,314.497 236.090 C 314.448 236.090,313.873 236.665,313.219 237.368 M165.041 240.213 C 165.415 240.285,165.957 240.282,166.244 240.207 C 166.532 240.131,166.226 240.073,165.564 240.076 C 164.902 240.079,164.667 240.141,165.041 240.213 M168.647 240.218 C 169.184 240.284,170.064 240.284,170.602 240.218 C 171.139 240.151,170.699 240.096,169.624 240.096 C 168.549 240.096,168.109 240.151,168.647 240.218 M172.406 240.207 C 172.695 240.283,173.169 240.283,173.459 240.207 C 173.748 240.132,173.511 240.070,172.932 240.070 C 172.353 240.070,172.117 240.132,172.406 240.207 M174.511 240.207 C 174.801 240.283,175.274 240.283,175.564 240.207 C 175.853 240.132,175.617 240.070,175.038 240.070 C 174.459 240.070,174.222 240.132,174.511 240.207 M142.331 241.410 C 142.620 241.486,143.094 241.486,143.383 241.410 C 143.673 241.335,143.436 241.273,142.857 241.273 C 142.278 241.273,142.041 241.335,142.331 241.410 M199.774 242.012 C 200.064 242.087,200.538 242.087,200.827 242.012 C 201.117 241.936,200.880 241.874,200.301 241.874 C 199.722 241.874,199.485 241.936,199.774 242.012 M167.598 264.877 C 168.055 264.947,168.732 264.945,169.102 264.873 C 169.472 264.802,169.098 264.745,168.271 264.748 C 167.444 264.750,167.141 264.808,167.598 264.877 M157.669 265.178 C 158.124 265.247,158.868 265.247,159.323 265.178 C 159.778 265.109,159.406 265.053,158.496 265.053 C 157.586 265.053,157.214 265.109,157.669 265.178 M178.726 265.178 C 179.183 265.247,179.860 265.246,180.230 265.174 C 180.600 265.103,180.226 265.046,179.398 265.048 C 178.571 265.051,178.269 265.109,178.726 265.178 M151.959 265.479 C 152.416 265.548,153.093 265.546,153.463 265.475 C 153.833 265.403,153.459 265.347,152.632 265.349 C 151.805 265.351,151.502 265.410,151.959 265.479 M87.368 270.075 C 88.015 270.737,88.611 271.278,88.694 271.278 C 88.776 271.278,88.315 270.737,87.669 270.075 C 87.023 269.414,86.427 268.872,86.344 268.872 C 86.261 268.872,86.722 269.414,87.368 270.075 M293.309 282.256 C 293.312 282.917,293.374 283.153,293.446 282.778 C 293.518 282.404,293.515 281.863,293.440 281.575 C 293.364 281.288,293.306 281.594,293.309 282.256 M52.030 334.887 C 52.591 335.466,53.118 335.940,53.201 335.940 C 53.283 335.940,52.892 335.466,52.331 334.887 C 51.770 334.308,51.243 333.835,51.160 333.835 C 51.077 333.835,51.469 334.308,52.030 334.887 M344.192 338.722 L 343.308 339.699 344.286 338.816 C 345.197 337.993,345.401 337.744,345.169 337.744 C 345.117 337.744,344.677 338.184,344.192 338.722 M57.895 341.053 C 58.877 342.045,59.748 342.857,59.831 342.857 C 59.914 342.857,59.178 342.045,58.195 341.053 C 57.213 340.060,56.342 339.248,56.259 339.248 C 56.177 339.248,56.913 340.060,57.895 341.053 M341.790 341.128 L 340.602 342.406 341.880 341.217 C 343.068 340.112,343.296 339.850,343.069 339.850 C 343.019 339.850,342.444 340.425,341.790 341.128 M338.177 344.737 L 337.293 345.714 338.271 344.831 C 339.182 344.008,339.386 343.759,339.154 343.759 C 339.102 343.759,338.662 344.199,338.177 344.737 M334.420 348.195 L 333.383 349.323 334.511 348.287 C 335.132 347.717,335.639 347.209,335.639 347.159 C 335.639 346.929,335.385 347.146,334.420 348.195 M67.368 349.869 C 67.368 349.920,67.808 350.360,68.346 350.846 L 69.323 351.729 68.440 350.752 C 67.617 349.841,67.368 349.636,67.368 349.869 M187.297 399.912 C 187.671 399.984,188.212 399.981,188.500 399.906 C 188.787 399.831,188.481 399.772,187.820 399.775 C 187.158 399.778,186.923 399.840,187.297 399.912 M193.764 400.216 C 194.221 400.285,194.897 400.283,195.267 400.212 C 195.637 400.140,195.263 400.084,194.436 400.086 C 193.609 400.088,193.306 400.147,193.764 400.216 M199.323 400.212 C 199.695 400.284,200.305 400.284,200.677 400.212 C 201.049 400.141,200.744 400.082,200.000 400.082 C 199.256 400.082,198.951 400.141,199.323 400.212 M204.891 400.216 C 205.349 400.285,206.025 400.283,206.395 400.212 C 206.765 400.140,206.391 400.084,205.564 400.086 C 204.737 400.088,204.434 400.147,204.891 400.216 " stroke="none" fill="#6814fc" fill-rule="evenodd"></path></g></svg>